<svg xmlns="http://www.w3.org/2000/svg" viewBox="0 0 1440 900" role="img" aria-label="Mock screenshot of the LinkedIn Auto Reaction Codex plugin workflow">
  <rect width="1440" height="900" fill="#EEF4FA"/>
  <rect x="32" y="28" width="1376" height="844" rx="26" fill="#FFFFFF" stroke="#D8E4F0" stroke-width="4"/>
  <rect x="32" y="28" width="1376" height="70" rx="26" fill="#0F172A"/>
  <circle cx="72" cy="64" r="8" fill="#FB7185"/>
  <circle cx="98" cy="64" r="8" fill="#FBBF24"/>
  <circle cx="124" cy="64" r="8" fill="#34D399"/>
  <rect x="162" y="46" width="588" height="36" rx="18" fill="#1E293B"/>
  <text x="194" y="69" fill="#CBD5E1" font-family="Arial, Helvetica, sans-serif" font-size="18">linkedin.com/feed</text>
  <rect x="74" y="140" width="250" height="662" rx="22" fill="#F8FBFF" stroke="#D9E7F5" stroke-width="3"/>
  <text x="106" y="188" fill="#0F172A" font-family="Arial, Helvetica, sans-serif" font-size="28" font-weight="700">Plugin Summary</text>
  <text x="106" y="232" fill="#475569" font-family="Arial, Helvetica, sans-serif" font-size="20">Visible browser only</text>
  <text x="106" y="270" fill="#475569" font-family="Arial, Helvetica, sans-serif" font-size="20">Chrome session reuse</text>
  <text x="106" y="308" fill="#475569" font-family="Arial, Helvetica, sans-serif" font-size="20">Dedupe ledger checks</text>
  <text x="106" y="346" fill="#475569" font-family="Arial, Helvetica, sans-serif" font-size="20">Approval before action</text>
  <rect x="106" y="400" width="186" height="38" rx="19" fill="#DBEAFE"/>
  <text x="136" y="425" fill="#0A66C2" font-family="Arial, Helvetica, sans-serif" font-size="18" font-weight="700">Productivity</text>
  <rect x="360" y="140" width="564" height="662" rx="22" fill="#FFFFFF" stroke="#D9E7F5" stroke-width="3"/>
  <text x="396" y="188" fill="#0F172A" font-family="Arial, Helvetica, sans-serif" font-size="28" font-weight="700">Visible LinkedIn Review</text>
  <rect x="396" y="224" width="494" height="168" rx="18" fill="#F8FBFF" stroke="#D9E7F5" stroke-width="3"/>
  <circle cx="438" cy="270" r="22" fill="#93C5FD"/>
  <rect x="474" y="248" width="182" height="18" rx="9" fill="#0F172A"/>
  <rect x="474" y="278" width="104" height="14" rx="7" fill="#64748B"/>
  <rect x="396" y="324" width="420" height="14" rx="7" fill="#94A3B8"/>
  <rect x="396" y="350" width="402" height="14" rx="7" fill="#94A3B8"/>
  <rect x="396" y="436" width="494" height="168" rx="18" fill="#F8FBFF" stroke="#D9E7F5" stroke-width="3"/>
  <circle cx="438" cy="482" r="22" fill="#BFDBFE"/>
  <rect x="474" y="460" width="210" height="18" rx="9" fill="#0F172A"/>
  <rect x="474" y="490" width="132" height="14" rx="7" fill="#64748B"/>
  <rect x="396" y="536" width="434" height="14" rx="7" fill="#94A3B8"/>
  <rect x="396" y="562" width="356" height="14" rx="7" fill="#94A3B8"/>
  <rect x="958" y="140" width="400" height="662" rx="22" fill="#0F172A"/>
  <text x="992" y="188" fill="#F8FAFC" font-family="Arial, Helvetica, sans-serif" font-size="28" font-weight="700">Approval Card</text>
  <text x="992" y="236" fill="#CBD5E1" font-family="Arial, Helvetica, sans-serif" font-size="19">Candidate 1</text>
  <text x="992" y="268" fill="#E2E8F0" font-family="Arial, Helvetica, sans-serif" font-size="18">post: Jane Doe | 3h | MLOps | 8/10</text>
  <text x="992" y="320" fill="#F8FAFC" font-family="Arial, Helvetica, sans-serif" font-size="21">Concrete point on drift makes a grounded</text>
  <text x="992" y="350" fill="#F8FAFC" font-family="Arial, Helvetica, sans-serif" font-size="21">question easy before any visible action.</text>
  <rect x="992" y="394" width="140" height="30" rx="15" fill="#1D4ED8"/>
  <text x="1027" y="414" fill="#DBEAFE" font-family="Arial, Helvetica, sans-serif" font-size="15" font-weight="700">Insightful</text>
  <rect x="992" y="454" width="314" height="98" rx="16" fill="#111827" stroke="#334155" stroke-width="2"/>
  <text x="1012" y="486" fill="#F8FAFC" font-family="Arial, Helvetica, sans-serif" font-size="17">This part about drift detection feels like</text>
  <text x="1012" y="514" fill="#F8FAFC" font-family="Arial, Helvetica, sans-serif" font-size="17">the real decision point. What signals have</text>
  <text x="1012" y="542" fill="#F8FAFC" font-family="Arial, Helvetica, sans-serif" font-size="17">been most reliable for your team so far?</text>
  <rect x="992" y="588" width="144" height="30" rx="15" fill="#14532D"/>
  <text x="1020" y="608" fill="#DCFCE7" font-family="Arial, Helvetica, sans-serif" font-size="15" font-weight="700">dedupe=pass</text>
  <rect x="1148" y="588" width="118" height="30" rx="15" fill="#1E40AF"/>
  <text x="1181" y="608" fill="#DBEAFE" font-family="Arial, Helvetica, sans-serif" font-size="15" font-weight="700">lint=pass</text>
  <rect x="992" y="660" width="248" height="42" rx="21" fill="#0A66C2"/>
  <text x="1055" y="687" fill="#E8F3FF" font-family="Arial, Helvetica, sans-serif" font-size="18" font-weight="700">Wait for approval</text>
</svg>
